<?xml version="1.0" encoding="UTF-8" standalone="no"?>
<!DOCTYPE svg PUBLIC "-//W3C//DTD SVG 1.1//EN"
 "http://www.w3.org/Graphics/SVG/1.1/DTD/svg11.dtd">
<!-- Generated by graphviz version 2.42.4 (0)
 -->
<!-- Title: G Pages: 1 -->
<svg width="929pt" height="252pt"
 viewBox="0.00 0.00 929.00 252.00" xmlns="http://www.w3.org/2000/svg" xmlns:xlink="http://www.w3.org/1999/xlink">
<g id="graph0" class="graph" transform="scale(1 1) rotate(0) translate(18 234)">
<title>G</title>
<polygon fill="white" stroke="transparent" points="-18,18 -18,-234 911,-234 911,18 -18,18"/>
<text text-anchor="middle" x="446.5" y="-192.8" font-family="Noto Sans CJK SC" font-size="24.00">图 5&#45;1 系统总体功能结构图</text>
<!-- root -->
<g id="node1" class="node">
<title>root</title>
<path fill="#dbeafe" stroke="#2563eb" stroke-width="1.5" d="M523,-182C523,-182 364,-182 364,-182 358,-182 352,-176 352,-170 352,-170 352,-158 352,-158 352,-152 358,-146 364,-146 364,-146 523,-146 523,-146 529,-146 535,-152 535,-158 535,-158 535,-170 535,-170 535,-176 529,-182 523,-182"/>
<text text-anchor="middle" x="443.5" y="-159.6" font-family="Noto Sans CJK SC" font-size="18.00">在线教学与实训平台</text>
</g>
<!-- ua -->
<g id="node2" class="node">
<title>ua</title>
<path fill="#f8fafc" stroke="#4b5563" d="M123,-89C123,-89 12,-89 12,-89 6,-89 0,-83 0,-77 0,-77 0,-19 0,-19 0,-13 6,-7 12,-7 12,-7 123,-7 123,-7 129,-7 135,-13 135,-19 135,-19 135,-77 135,-77 135,-83 129,-89 123,-89"/>
<text text-anchor="middle" x="67.5" y="-72.6" font-family="Noto Sans CJK SC" font-size="13.00">用户权限与平台安全</text>
<text text-anchor="middle" x="67.5" y="-58.6" font-family="Noto Sans CJK SC" font-size="13.00">&#45; 注册登录</text>
<text text-anchor="middle" x="67.5" y="-44.6" font-family="Noto Sans CJK SC" font-size="13.00">&#45; 角色权限</text>
<text text-anchor="middle" x="67.5" y="-30.6" font-family="Noto Sans CJK SC" font-size="13.00">&#45; 账号状态</text>
<text text-anchor="middle" x="67.5" y="-16.6" font-family="Noto Sans CJK SC" font-size="13.00">&#45; 日志审计</text>
</g>
<!-- root&#45;&gt;ua -->
<g id="edge1" class="edge">
<title>root&#45;&gt;ua</title>
<path fill="none" stroke="#64748b" d="M351.68,-149.3C292.62,-138.74 214.97,-121.56 149.5,-96 146.41,-94.8 143.31,-93.49 140.2,-92.1"/>
<polygon fill="#64748b" stroke="#64748b" points="141.2,-89.87 133.82,-89.16 139.15,-94.32 141.2,-89.87"/>
</g>
<!-- cr -->
<g id="node3" class="node">
<title>cr</title>
<path fill="#f8fafc" stroke="#4b5563" d="M262.5,-96C262.5,-96 176.5,-96 176.5,-96 170.5,-96 164.5,-90 164.5,-84 164.5,-84 164.5,-12 164.5,-12 164.5,-6 170.5,0 176.5,0 176.5,0 262.5,0 262.5,0 268.5,0 274.5,-6 274.5,-12 274.5,-12 274.5,-84 274.5,-84 274.5,-90 268.5,-96 262.5,-96"/>
<text text-anchor="middle" x="219.5" y="-79.6" font-family="Noto Sans CJK SC" font-size="13.00">课程与教学资源</text>
<text text-anchor="middle" x="219.5" y="-65.6" font-family="Noto Sans CJK SC" font-size="13.00">&#45; 课程创建</text>
<text text-anchor="middle" x="219.5" y="-51.6" font-family="Noto Sans CJK SC" font-size="13.00">&#45; 章节管理</text>
<text text-anchor="middle" x="219.5" y="-37.6" font-family="Noto Sans CJK SC" font-size="13.00">&#45; 资源上传</text>
<text text-anchor="middle" x="219.5" y="-23.6" font-family="Noto Sans CJK SC" font-size="13.00">&#45; 成员管理</text>
<text text-anchor="middle" x="219.5" y="-9.6" font-family="Noto Sans CJK SC" font-size="13.00">&#45; 公告发布</text>
</g>
<!-- root&#45;&gt;cr -->
<g id="edge2" class="edge">
<title>root&#45;&gt;cr</title>
<path fill="none" stroke="#64748b" d="M398.34,-145.87C367.09,-133.41 324.92,-115.39 289.5,-96 286.6,-94.41 283.67,-92.74 280.74,-91.01"/>
<polygon fill="#64748b" stroke="#64748b" points="281.98,-88.9 274.72,-87.39 279.45,-93.1 281.98,-88.9"/>
</g>
<!-- ln -->
<g id="node4" class="node">
<title>ln</title>
<path fill="#f8fafc" stroke="#4b5563" d="M427,-96C427,-96 316,-96 316,-96 310,-96 304,-90 304,-84 304,-84 304,-12 304,-12 304,-6 310,0 316,0 316,0 427,0 427,0 433,0 439,-6 439,-12 439,-12 439,-84 439,-84 439,-90 433,-96 427,-96"/>
<text text-anchor="middle" x="371.5" y="-79.6" font-family="Noto Sans CJK SC" font-size="13.00">学习过程与通知提醒</text>
<text text-anchor="middle" x="371.5" y="-65.6" font-family="Noto Sans CJK SC" font-size="13.00">&#45; 学习记录</text>
<text text-anchor="middle" x="371.5" y="-51.6" font-family="Noto Sans CJK SC" font-size="13.00">&#45; 任务中心</text>
<text text-anchor="middle" x="371.5" y="-37.6" font-family="Noto Sans CJK SC" font-size="13.00">&#45; 进度展示</text>
<text text-anchor="middle" x="371.5" y="-23.6" font-family="Noto Sans CJK SC" font-size="13.00">&#45; 消息提醒</text>
<text text-anchor="middle" x="371.5" y="-9.6" font-family="Noto Sans CJK SC" font-size="13.00">&#45; 公告通知</text>
</g>
<!-- root&#45;&gt;ln -->
<g id="edge3" class="edge">
<title>root&#45;&gt;ln</title>
<path fill="none" stroke="#64748b" d="M432.56,-145.69C425.2,-134.03 415.06,-117.97 405.16,-102.3"/>
<polygon fill="#64748b" stroke="#64748b" points="407.05,-100.69 401.24,-96.08 402.9,-103.31 407.05,-100.69"/>
</g>
<!-- lab -->
<g id="node5" class="node">
<title>lab</title>
<path fill="#f8fafc" stroke="#4b5563" d="M553,-96C553,-96 480,-96 480,-96 474,-96 468,-90 468,-84 468,-84 468,-12 468,-12 468,-6 474,0 480,0 480,0 553,0 553,0 559,0 565,-6 565,-12 565,-12 565,-84 565,-84 565,-90 559,-96 553,-96"/>
<text text-anchor="middle" x="516.5" y="-79.6" font-family="Noto Sans CJK SC" font-size="13.00">实训实验模块</text>
<text text-anchor="middle" x="516.5" y="-65.6" font-family="Noto Sans CJK SC" font-size="13.00">&#45; 实验创建</text>
<text text-anchor="middle" x="516.5" y="-51.6" font-family="Noto Sans CJK SC" font-size="13.00">&#45; 实验发布</text>
<text text-anchor="middle" x="516.5" y="-37.6" font-family="Noto Sans CJK SC" font-size="13.00">&#45; 实验提交</text>
<text text-anchor="middle" x="516.5" y="-23.6" font-family="Noto Sans CJK SC" font-size="13.00">&#45; 实验评分</text>
<text text-anchor="middle" x="516.5" y="-9.6" font-family="Noto Sans CJK SC" font-size="13.00">&#45; 实验统计</text>
</g>
<!-- root&#45;&gt;lab -->
<g id="edge4" class="edge">
<title>root&#45;&gt;lab</title>
<path fill="none" stroke="#64748b" d="M454.59,-145.69C462.05,-134.03 472.33,-117.97 482.37,-102.3"/>
<polygon fill="#64748b" stroke="#64748b" points="484.64,-103.3 486.35,-96.08 480.51,-100.66 484.64,-103.3"/>
</g>
<!-- hw -->
<g id="node6" class="node">
<title>hw</title>
<path fill="#f8fafc" stroke="#4b5563" d="M717,-96C717,-96 606,-96 606,-96 600,-96 594,-90 594,-84 594,-84 594,-12 594,-12 594,-6 600,0 606,0 606,0 717,0 717,0 723,0 729,-6 729,-12 729,-12 729,-84 729,-84 729,-90 723,-96 717,-96"/>
<text text-anchor="middle" x="661.5" y="-79.6" font-family="Noto Sans CJK SC" font-size="13.00">作业与自动评测模块</text>
<text text-anchor="middle" x="661.5" y="-65.6" font-family="Noto Sans CJK SC" font-size="13.00">&#45; 作业创建</text>
<text text-anchor="middle" x="661.5" y="-51.6" font-family="Noto Sans CJK SC" font-size="13.00">&#45; 作业提交</text>
<text text-anchor="middle" x="661.5" y="-37.6" font-family="Noto Sans CJK SC" font-size="13.00">&#45; 自动评测</text>
<text text-anchor="middle" x="661.5" y="-23.6" font-family="Noto Sans CJK SC" font-size="13.00">&#45; 重评</text>
<text text-anchor="middle" x="661.5" y="-9.6" font-family="Noto Sans CJK SC" font-size="13.00">&#45; 结果反馈</text>
</g>
<!-- root&#45;&gt;hw -->
<g id="edge5" class="edge">
<title>root&#45;&gt;hw</title>
<path fill="none" stroke="#64748b" d="M479.6,-145.97C507.19,-132.78 546.04,-113.81 579.5,-96 582.11,-94.61 584.75,-93.19 587.42,-91.74"/>
<polygon fill="#64748b" stroke="#64748b" points="588.71,-93.83 593.67,-88.31 586.35,-89.53 588.71,-93.83"/>
</g>
<!-- gr -->
<g id="node7" class="node">
<title>gr</title>
<path fill="#f8fafc" stroke="#4b5563" d="M881,-96C881,-96 770,-96 770,-96 764,-96 758,-90 758,-84 758,-84 758,-12 758,-12 758,-6 764,0 770,0 770,0 881,0 881,0 887,0 893,-6 893,-12 893,-12 893,-84 893,-84 893,-90 887,-96 881,-96"/>
<text text-anchor="middle" x="825.5" y="-79.6" font-family="Noto Sans CJK SC" font-size="13.00">成绩评价与教学分析</text>
<text text-anchor="middle" x="825.5" y="-65.6" font-family="Noto Sans CJK SC" font-size="13.00">&#45; 成绩项配置</text>
<text text-anchor="middle" x="825.5" y="-51.6" font-family="Noto Sans CJK SC" font-size="13.00">&#45; 成绩汇总</text>
<text text-anchor="middle" x="825.5" y="-37.6" font-family="Noto Sans CJK SC" font-size="13.00">&#45; 成绩发布</text>
<text text-anchor="middle" x="825.5" y="-23.6" font-family="Noto Sans CJK SC" font-size="13.00">&#45; 统计分析</text>
<text text-anchor="middle" x="825.5" y="-9.6" font-family="Noto Sans CJK SC" font-size="13.00">&#45; 成绩导出</text>
</g>
<!-- root&#45;&gt;gr -->
<g id="edge6" class="edge">
<title>root&#45;&gt;gr</title>
<path fill="none" stroke="#64748b" d="M535.19,-149.88C595.69,-139.46 675.96,-122.2 743.5,-96 746.02,-95.02 748.55,-93.98 751.09,-92.87"/>
<polygon fill="#64748b" stroke="#64748b" points="752.44,-94.95 757.81,-89.84 750.42,-90.49 752.44,-94.95"/>
</g>
</g>
</svg>
