<?xml version="1.0" encoding="UTF-8" standalone="no"?>
<!DOCTYPE svg PUBLIC "-//W3C//DTD SVG 1.1//EN"
 "http://www.w3.org/Graphics/SVG/1.1/DTD/svg11.dtd">
<!-- Generated by graphviz version 2.42.4 (0)
 -->
<!-- Title: G Pages: 1 -->
<svg width="1425pt" height="450pt"
 viewBox="0.00 0.00 1425.00 450.00" xmlns="http://www.w3.org/2000/svg" xmlns:xlink="http://www.w3.org/1999/xlink">
<g id="graph0" class="graph" transform="scale(1 1) rotate(0) translate(18 432)">
<title>G</title>
<polygon fill="white" stroke="transparent" points="-18,18 -18,-432 1407,-432 1407,18 -18,18"/>
<text text-anchor="middle" x="694.5" y="-390.8" font-family="Noto Sans CJK SC" font-size="24.00">图 5&#45;2 核心对象结构图</text>
<!-- user -->
<g id="node1" class="node">
<title>user</title>
<path fill="#eef2ff" stroke="#64748b" d="M355.5,-240C355.5,-240 455.5,-240 455.5,-240 461.5,-240 467.5,-246 467.5,-252 467.5,-252 467.5,-288 467.5,-288 467.5,-294 461.5,-300 455.5,-300 455.5,-300 355.5,-300 355.5,-300 349.5,-300 343.5,-294 343.5,-288 343.5,-288 343.5,-252 343.5,-252 343.5,-246 349.5,-240 355.5,-240"/>
<text text-anchor="middle" x="364" y="-266.9" font-family="Noto Sans CJK SC" font-size="12.00">User</text>
<polyline fill="none" stroke="#64748b" points="384.5,-240 384.5,-300 "/>
<text text-anchor="start" x="392.5" y="-286.4" font-family="Noto Sans CJK SC" font-size="12.00">+ userId</text>
<text text-anchor="start" x="392.5" y="-273.4" font-family="Noto Sans CJK SC" font-size="12.00">+ username</text>
<text text-anchor="start" x="392.5" y="-260.4" font-family="Noto Sans CJK SC" font-size="12.00">+ role</text>
<text text-anchor="start" x="392.5" y="-247.4" font-family="Noto Sans CJK SC" font-size="12.00">+ status</text>
</g>
<!-- course -->
<g id="node2" class="node">
<title>course</title>
<path fill="#eff6ff" stroke="#64748b" d="M352,-154.5C352,-154.5 459,-154.5 459,-154.5 465,-154.5 471,-160.5 471,-166.5 471,-166.5 471,-189.5 471,-189.5 471,-195.5 465,-201.5 459,-201.5 459,-201.5 352,-201.5 352,-201.5 346,-201.5 340,-195.5 340,-189.5 340,-189.5 340,-166.5 340,-166.5 340,-160.5 346,-154.5 352,-154.5"/>
<text text-anchor="middle" x="368" y="-174.9" font-family="Noto Sans CJK SC" font-size="12.00">Course</text>
<polyline fill="none" stroke="#64748b" points="396,-154.5 396,-201.5 "/>
<text text-anchor="start" x="404" y="-187.9" font-family="Noto Sans CJK SC" font-size="12.00">+ courseId</text>
<text text-anchor="start" x="404" y="-174.9" font-family="Noto Sans CJK SC" font-size="12.00">+ name</text>
<text text-anchor="start" x="404" y="-161.9" font-family="Noto Sans CJK SC" font-size="12.00">+ status</text>
</g>
<!-- chapter -->
<g id="node3" class="node">
<title>chapter</title>
<path fill="#f8fafc" stroke="#64748b" d="M621.5,-320.5C621.5,-320.5 740.5,-320.5 740.5,-320.5 746.5,-320.5 752.5,-326.5 752.5,-332.5 752.5,-332.5 752.5,-355.5 752.5,-355.5 752.5,-361.5 746.5,-367.5 740.5,-367.5 740.5,-367.5 621.5,-367.5 621.5,-367.5 615.5,-367.5 609.5,-361.5 609.5,-355.5 609.5,-355.5 609.5,-332.5 609.5,-332.5 609.5,-326.5 615.5,-320.5 621.5,-320.5"/>
<text text-anchor="middle" x="640.5" y="-340.9" font-family="Noto Sans CJK SC" font-size="12.00">Chapter</text>
<polyline fill="none" stroke="#64748b" points="671.5,-320.5 671.5,-367.5 "/>
<text text-anchor="start" x="679.5" y="-353.9" font-family="Noto Sans CJK SC" font-size="12.00">+ chapterId</text>
<text text-anchor="start" x="679.5" y="-340.9" font-family="Noto Sans CJK SC" font-size="12.00">+ title</text>
<text text-anchor="start" x="679.5" y="-327.9" font-family="Noto Sans CJK SC" font-size="12.00">+ orderNo</text>
</g>
<!-- course&#45;&gt;chapter -->
<g id="edge5" class="edge">
<title>course&#45;&gt;chapter</title>
<path fill="none" stroke="#475569" d="M471.05,-181C491.59,-181 509,-181 509,-181 509,-181 509,-326 509,-326 509,-326 561.92,-326 609.05,-326"/>
<text text-anchor="middle" x="527.5" y="-322.2" font-family="Noto Sans CJK SC" font-size="11.00">1..* 包含</text>
</g>
<!-- experiment -->
<g id="node5" class="node">
<title>experiment</title>
<path fill="#fefce8" stroke="#64748b" d="M601.5,-160.5C601.5,-160.5 760.5,-160.5 760.5,-160.5 766.5,-160.5 772.5,-166.5 772.5,-172.5 772.5,-172.5 772.5,-195.5 772.5,-195.5 772.5,-201.5 766.5,-207.5 760.5,-207.5 760.5,-207.5 601.5,-207.5 601.5,-207.5 595.5,-207.5 589.5,-201.5 589.5,-195.5 589.5,-195.5 589.5,-172.5 589.5,-172.5 589.5,-166.5 595.5,-160.5 601.5,-160.5"/>
<text text-anchor="middle" x="630" y="-180.9" font-family="Noto Sans CJK SC" font-size="12.00">Experiment</text>
<polyline fill="none" stroke="#64748b" points="670.5,-160.5 670.5,-207.5 "/>
<text text-anchor="start" x="678.5" y="-193.9" font-family="Noto Sans CJK SC" font-size="12.00">+ experimentId</text>
<text text-anchor="start" x="678.5" y="-180.9" font-family="Noto Sans CJK SC" font-size="12.00">+ title</text>
<text text-anchor="start" x="678.5" y="-167.9" font-family="Noto Sans CJK SC" font-size="12.00">+ deadline</text>
</g>
<!-- course&#45;&gt;experiment -->
<g id="edge7" class="edge">
<title>course&#45;&gt;experiment</title>
<path fill="none" stroke="#475569" d="M471.14,-191.5C506.47,-191.5 550.62,-191.5 589.29,-191.5"/>
<text text-anchor="middle" x="527.5" y="-183.2" font-family="Noto Sans CJK SC" font-size="11.00">1..* 包含</text>
</g>
<!-- homework -->
<g id="node6" class="node">
<title>homework</title>
<path fill="#fefce8" stroke="#64748b" d="M601,-240.5C601,-240.5 761,-240.5 761,-240.5 767,-240.5 773,-246.5 773,-252.5 773,-252.5 773,-275.5 773,-275.5 773,-281.5 767,-287.5 761,-287.5 761,-287.5 601,-287.5 601,-287.5 595,-287.5 589,-281.5 589,-275.5 589,-275.5 589,-252.5 589,-252.5 589,-246.5 595,-240.5 601,-240.5"/>
<text text-anchor="middle" x="630" y="-260.9" font-family="Noto Sans CJK SC" font-size="12.00">Homework</text>
<polyline fill="none" stroke="#64748b" points="671,-240.5 671,-287.5 "/>
<text text-anchor="start" x="679" y="-273.9" font-family="Noto Sans CJK SC" font-size="12.00">+ homeworkId</text>
<text text-anchor="start" x="679" y="-260.9" font-family="Noto Sans CJK SC" font-size="12.00">+ type</text>
<text text-anchor="start" x="679" y="-247.9" font-family="Noto Sans CJK SC" font-size="12.00">+ deadline</text>
</g>
<!-- course&#45;&gt;homework -->
<g id="edge8" class="edge">
<title>course&#45;&gt;assignment</title>
<path fill="none" stroke="#475569" d="M471.28,-170.5C508.23,-170.5 547,-170.5 547,-170.5 547,-170.5 547,-264 547,-264 547,-264 565.45,-264 588.66,-264"/>
<text text-anchor="middle" x="527.5" y="-249.2" font-family="Noto Sans CJK SC" font-size="11.00">1..* 包含</text>
</g>
<!-- gradeitem -->
<g id="node9" class="node">
<title>gradeitem</title>
<path fill="#ecfccb" stroke="#64748b" d="M606.5,-80.5C606.5,-80.5 755.5,-80.5 755.5,-80.5 761.5,-80.5 767.5,-86.5 767.5,-92.5 767.5,-92.5 767.5,-115.5 767.5,-115.5 767.5,-121.5 761.5,-127.5 755.5,-127.5 755.5,-127.5 606.5,-127.5 606.5,-127.5 600.5,-127.5 594.5,-121.5 594.5,-115.5 594.5,-115.5 594.5,-92.5 594.5,-92.5 594.5,-86.5 600.5,-80.5 606.5,-80.5"/>
<text text-anchor="middle" x="633" y="-100.9" font-family="Noto Sans CJK SC" font-size="12.00">GradeItem</text>
<polyline fill="none" stroke="#64748b" points="671.5,-80.5 671.5,-127.5 "/>
<text text-anchor="start" x="679.5" y="-113.9" font-family="Noto Sans CJK SC" font-size="12.00">+ gradeItemId</text>
<text text-anchor="start" x="679.5" y="-100.9" font-family="Noto Sans CJK SC" font-size="12.00">+ name</text>
<text text-anchor="start" x="679.5" y="-87.9" font-family="Noto Sans CJK SC" font-size="12.00">+ weight</text>
</g>
<!-- course&#45;&gt;gradeitem -->
<g id="edge12" class="edge">
<title>course&#45;&gt;gradeitem</title>
<path fill="none" stroke="#475569" d="M439,-154.26C439,-135.78 439,-113.25 439,-113.25 439,-113.25 524.88,-113.25 594.32,-113.25"/>
<text text-anchor="middle" x="527.5" y="-130.2" font-family="Noto Sans CJK SC" font-size="11.00">1..* 定义</text>
</g>
<!-- graderecord -->
<g id="node10" class="node">
<title>graderecord</title>
<path fill="#ecfccb" stroke="#64748b" d="M596,-0.5C596,-0.5 766,-0.5 766,-0.5 772,-0.5 778,-6.5 778,-12.5 778,-12.5 778,-35.5 778,-35.5 778,-41.5 772,-47.5 766,-47.5 766,-47.5 596,-47.5 596,-47.5 590,-47.5 584,-41.5 584,-35.5 584,-35.5 584,-12.5 584,-12.5 584,-6.5 590,-0.5 596,-0.5"/>
<text text-anchor="middle" x="629" y="-20.9" font-family="Noto Sans CJK SC" font-size="12.00">GradeRecord</text>
<polyline fill="none" stroke="#64748b" points="674,-0.5 674,-47.5 "/>
<text text-anchor="start" x="682" y="-33.9" font-family="Noto Sans CJK SC" font-size="12.00">+ recordId</text>
<text text-anchor="start" x="682" y="-20.9" font-family="Noto Sans CJK SC" font-size="12.00">+ totalScore</text>
<text text-anchor="start" x="682" y="-7.9" font-family="Noto Sans CJK SC" font-size="12.00">+ publishStatus</text>
</g>
<!-- course&#45;&gt;graderecord -->
<g id="edge14" class="edge">
<title>course&#45;&gt;graderecord</title>
<path fill="none" stroke="#475569" d="M406,-154.27C406,-111.08 406,-24 406,-24 406,-24 504.55,-24 583.66,-24"/>
<text text-anchor="middle" x="527.5" y="-81.2" font-family="Noto Sans CJK SC" font-size="11.00">生成</text>
</g>
<!-- resource -->
<g id="node4" class="node">
<title>resource</title>
<path fill="#f8fafc" stroke="#64748b" d="M917.5,-320.5C917.5,-320.5 1047.5,-320.5 1047.5,-320.5 1053.5,-320.5 1059.5,-326.5 1059.5,-332.5 1059.5,-332.5 1059.5,-355.5 1059.5,-355.5 1059.5,-361.5 1053.5,-367.5 1047.5,-367.5 1047.5,-367.5 917.5,-367.5 917.5,-367.5 911.5,-367.5 905.5,-361.5 905.5,-355.5 905.5,-355.5 905.5,-332.5 905.5,-332.5 905.5,-326.5 911.5,-320.5 917.5,-320.5"/>
<text text-anchor="middle" x="939.5" y="-340.9" font-family="Noto Sans CJK SC" font-size="12.00">Resource</text>
<polyline fill="none" stroke="#64748b" points="973.5,-320.5 973.5,-367.5 "/>
<text text-anchor="start" x="981.5" y="-353.9" font-family="Noto Sans CJK SC" font-size="12.00">+ resourceId</text>
<text text-anchor="start" x="981.5" y="-340.9" font-family="Noto Sans CJK SC" font-size="12.00">+ type</text>
<text text-anchor="start" x="981.5" y="-327.9" font-family="Noto Sans CJK SC" font-size="12.00">+ title</text>
</g>
<!-- chapter&#45;&gt;resource -->
<g id="edge6" class="edge">
<title>chapter&#45;&gt;resource</title>
<path fill="none" stroke="#475569" d="M752.83,-344C798.82,-344 858.44,-344 905.41,-344"/>
<text text-anchor="middle" x="834.5" y="-347.2" font-family="Noto Sans CJK SC" font-size="11.00">1..* 包含</text>
</g>
<!-- submission -->
<g id="node7" class="node">
<title>submission</title>
<path fill="#fff7ed" stroke="#64748b" d="M903,-208.5C903,-208.5 1062,-208.5 1062,-208.5 1068,-208.5 1074,-214.5 1074,-220.5 1074,-220.5 1074,-243.5 1074,-243.5 1074,-249.5 1068,-255.5 1062,-255.5 1062,-255.5 903,-255.5 903,-255.5 897,-255.5 891,-249.5 891,-243.5 891,-243.5 891,-220.5 891,-220.5 891,-214.5 897,-208.5 903,-208.5"/>
<text text-anchor="middle" x="932" y="-228.9" font-family="Noto Sans CJK SC" font-size="12.00">Submission</text>
<polyline fill="none" stroke="#64748b" points="973,-208.5 973,-255.5 "/>
<text text-anchor="start" x="981" y="-241.9" font-family="Noto Sans CJK SC" font-size="12.00">+ submissionId</text>
<text text-anchor="start" x="981" y="-228.9" font-family="Noto Sans CJK SC" font-size="12.00">+ version</text>
<text text-anchor="start" x="981" y="-215.9" font-family="Noto Sans CJK SC" font-size="12.00">+ submitTime</text>
</g>
<!-- experiment&#45;&gt;submission -->
<g id="edge9" class="edge">
<title>experiment&#45;&gt;submission</title>
<path fill="none" stroke="#475569" d="M681,-207.58C681,-216.14 681,-223.75 681,-223.75 681,-223.75 802.11,-223.75 890.81,-223.75"/>
<text text-anchor="middle" x="834.5" y="-203.2" font-family="Noto Sans CJK SC" font-size="11.00">1..* 产生</text>
</g>
<!-- homework&#45;&gt;submission -->
<g id="edge10" class="edge">
<title>assignment&#45;&gt;submission</title>
<path fill="none" stroke="#475569" d="M773.1,-248C810.5,-248 853.62,-248 890.97,-248"/>
<text text-anchor="middle" x="834.5" y="-267.2" font-family="Noto Sans CJK SC" font-size="11.00">1..* 产生</text>
</g>
<!-- autoeval -->
<g id="node8" class="node">
<title>autoeval</title>
<path fill="#fff7ed" stroke="#64748b" d="M1201,-208.5C1201,-208.5 1377,-208.5 1377,-208.5 1383,-208.5 1389,-214.5 1389,-220.5 1389,-220.5 1389,-243.5 1389,-243.5 1389,-249.5 1383,-255.5 1377,-255.5 1377,-255.5 1201,-255.5 1201,-255.5 1195,-255.5 1189,-249.5 1189,-243.5 1189,-243.5 1189,-220.5 1189,-220.5 1189,-214.5 1195,-208.5 1201,-208.5"/>
<text text-anchor="middle" x="1258.5" y="-228.9" font-family="Noto Sans CJK SC" font-size="12.00">AutoEvaluationResult</text>
<polyline fill="none" stroke="#64748b" points="1328,-208.5 1328,-255.5 "/>
<text text-anchor="start" x="1336" y="-241.9" font-family="Noto Sans CJK SC" font-size="12.00">+ evalId</text>
<text text-anchor="start" x="1336" y="-228.9" font-family="Noto Sans CJK SC" font-size="12.00">+ status</text>
<text text-anchor="start" x="1336" y="-215.9" font-family="Noto Sans CJK SC" font-size="12.00">+ score</text>
</g>
<!-- submission&#45;&gt;autoeval -->
<g id="edge11" class="edge">
<title>submission&#45;&gt;autoeval</title>
<path fill="none" stroke="#475569" d="M1074.04,-232C1110.21,-232 1151.87,-232 1188.83,-232"/>
<text text-anchor="middle" x="1131.5" y="-235.2" font-family="Noto Sans CJK SC" font-size="11.00">0..1 关联</text>
</g>
<!-- notification -->
<g id="node11" class="node">
<title>notification</title>
<path fill="#fce7f3" stroke="#64748b" d="M23,-252.5C23,-252.5 184,-252.5 184,-252.5 190,-252.5 196,-258.5 196,-264.5 196,-264.5 196,-287.5 196,-287.5 196,-293.5 190,-299.5 184,-299.5 184,-299.5 23,-299.5 23,-299.5 17,-299.5 11,-293.5 11,-287.5 11,-287.5 11,-264.5 11,-264.5 11,-258.5 17,-252.5 23,-252.5"/>
<text text-anchor="middle" x="52.5" y="-272.9" font-family="Noto Sans CJK SC" font-size="12.00">Notification</text>
<polyline fill="none" stroke="#64748b" points="94,-252.5 94,-299.5 "/>
<text text-anchor="start" x="102" y="-285.9" font-family="Noto Sans CJK SC" font-size="12.00">+ notificationId</text>
<text text-anchor="start" x="102" y="-272.9" font-family="Noto Sans CJK SC" font-size="12.00">+ type</text>
<text text-anchor="start" x="102" y="-259.9" font-family="Noto Sans CJK SC" font-size="12.00">+ readFlag</text>
</g>
<!-- notification&#45;&gt;user -->
<g id="edge15" class="edge">
<title>notification&#45;&gt;user</title>
<path fill="none" stroke="#475569" d="M196.16,-276C243.84,-276 300.7,-276 343.11,-276"/>
<text text-anchor="middle" x="273.5" y="-279.2" font-family="Noto Sans CJK SC" font-size="11.00">*..1 属于</text>
</g>
<!-- log -->
<g id="node12" class="node">
<title>log</title>
<path fill="#f3f4f6" stroke="#64748b" d="M53,-332.5C53,-332.5 154,-332.5 154,-332.5 160,-332.5 166,-338.5 166,-344.5 166,-344.5 166,-367.5 166,-367.5 166,-373.5 160,-379.5 154,-379.5 154,-379.5 53,-379.5 53,-379.5 47,-379.5 41,-373.5 41,-367.5 41,-367.5 41,-344.5 41,-344.5 41,-338.5 47,-332.5 53,-332.5"/>
<text text-anchor="middle" x="59.5" y="-352.9" font-family="Noto Sans CJK SC" font-size="12.00">Log</text>
<polyline fill="none" stroke="#64748b" points="78,-332.5 78,-379.5 "/>
<text text-anchor="start" x="86" y="-365.9" font-family="Noto Sans CJK SC" font-size="12.00">+ logId</text>
<text text-anchor="start" x="86" y="-352.9" font-family="Noto Sans CJK SC" font-size="12.00">+ actionType</text>
<text text-anchor="start" x="86" y="-339.9" font-family="Noto Sans CJK SC" font-size="12.00">+ result</text>
</g>
<!-- log&#45;&gt;user -->
<g id="edge16" class="edge">
<title>log&#45;&gt;user</title>
<path fill="none" stroke="#475569" d="M166.18,-350C254.78,-350 406,-350 406,-350 406,-350 406,-322.9 406,-300.24"/>
<text text-anchor="middle" x="273.5" y="-359.2" font-family="Noto Sans CJK SC" font-size="11.00">*..1 关联</text>
</g>
<!-- teacher -->
<g id="node13" class="node">
<title>teacher</title>
<path fill="#eef2ff" stroke="#64748b" d="M12.5,-171C12.5,-171 194.5,-171 194.5,-171 200.5,-171 206.5,-177 206.5,-183 206.5,-183 206.5,-195 206.5,-195 206.5,-201 200.5,-207 194.5,-207 194.5,-207 12.5,-207 12.5,-207 6.5,-207 0.5,-201 0.5,-195 0.5,-195 0.5,-183 0.5,-183 0.5,-177 6.5,-171 12.5,-171"/>
<text text-anchor="middle" x="47" y="-185.9" font-family="Noto Sans CJK SC" font-size="12.00">Teacher(User)</text>
<polyline fill="none" stroke="#64748b" points="93.5,-171 93.5,-207 "/>
<text text-anchor="middle" x="150" y="-185.9" font-family="Noto Sans CJK SC" font-size="12.00">管理课程角色视图</text>
</g>
<!-- teacher&#45;&gt;user -->
<g id="edge1" class="edge">
<title>teacher&#45;&gt;user</title>
<path fill="none" stroke="#475569" d="M202,-207.29C202,-224.56 202,-247.83 202,-247.83 202,-247.83 336.34,-247.83 336.34,-247.83"/>
<polygon fill="none" stroke="#475569" points="336.34,-250.28 343.34,-247.83 336.34,-245.38 336.34,-250.28"/>
<text text-anchor="middle" x="273.5" y="-230.2" font-family="Noto Sans CJK SC" font-size="11.00">继承/角色化</text>
</g>
<!-- teacher&#45;&gt;course -->
<g id="edge3" class="edge">
<title>teacher&#45;&gt;course</title>
<path fill="none" stroke="#475569" d="M206.59,-186.25C250.67,-186.25 300.84,-186.25 339.76,-186.25"/>
<text text-anchor="middle" x="273.5" y="-181.2" font-family="Noto Sans CJK SC" font-size="11.00">1..* 管理</text>
</g>
<!-- student -->
<g id="node14" class="node">
<title>student</title>
<path fill="#eef2ff" stroke="#64748b" d="M12,-62C12,-62 195,-62 195,-62 201,-62 207,-68 207,-74 207,-74 207,-86 207,-86 207,-92 201,-98 195,-98 195,-98 12,-98 12,-98 6,-98 0,-92 0,-86 0,-86 0,-74 0,-74 0,-68 6,-62 12,-62"/>
<text text-anchor="middle" x="47" y="-76.9" font-family="Noto Sans CJK SC" font-size="12.00">Student(User)</text>
<polyline fill="none" stroke="#64748b" points="94,-62 94,-98 "/>
<text text-anchor="middle" x="150.5" y="-76.9" font-family="Noto Sans CJK SC" font-size="12.00">加入课程角色视图</text>
</g>
<!-- student&#45;&gt;user -->
<g id="edge2" class="edge">
<title>student&#45;&gt;user</title>
<path fill="none" stroke="#475569" d="M207.1,-86.17C242.81,-86.17 274,-86.17 274,-86.17 274,-86.17 274,-243.67 274,-243.67 274,-243.67 336.22,-243.67 336.22,-243.67"/>
<polygon fill="none" stroke="#475569" points="336.22,-246.12 343.22,-243.67 336.22,-241.22 336.22,-246.12"/>
<text text-anchor="middle" x="273.5" y="-132.2" font-family="Noto Sans CJK SC" font-size="11.00">继承/角色化</text>
</g>
<!-- student&#45;&gt;course -->
<g id="edge4" class="edge">
<title>student&#45;&gt;course</title>
<path fill="none" stroke="#475569" d="M207.31,-92.33C283.23,-92.33 373,-92.33 373,-92.33 373,-92.33 373,-128.79 373,-154.14"/>
<text text-anchor="middle" x="273.5" y="-83.2" font-family="Noto Sans CJK SC" font-size="11.00">*..* 加入</text>
</g>
<!-- student&#45;&gt;graderecord -->
<g id="edge13" class="edge">
<title>student&#45;&gt;graderecord</title>
<path fill="none" stroke="#475569" d="M207.08,-70.75C373.27,-70.75 681,-70.75 681,-70.75 681,-70.75 681,-59.24 681,-47.65"/>
<text text-anchor="middle" x="405.5" y="-27.2" font-family="Noto Sans CJK SC" font-size="11.00">生成</text>
</g>
</g>
</svg>
